<svg width="18" height="18" viewBox="0 0 18 18" fill="none" xmlns="http://www.w3.org/2000/svg">
<path fill-rule="evenodd" clip-rule="evenodd" d="M11.875 8.70833C11.875 10.4572 10.4572 11.875 8.70833 11.875C6.95943 11.875 5.54167 10.4572 5.54167 8.70833C5.54167 6.95943 6.95943 5.54167 8.70833 5.54167C10.4572 5.54167 11.875 6.95943 11.875 8.70833ZM10.6875 8.70833C10.6875 9.8014 9.8014 10.6875 8.70833 10.6875C7.61527 10.6875 6.72917 9.8014 6.72917 8.70833C6.72917 7.61527 7.61527 6.72917 8.70833 6.72917C9.8014 6.72917 10.6875 7.61527 10.6875 8.70833Z" fill="#3D3D3D"/>
<path fill-rule="evenodd" clip-rule="evenodd" d="M8.70833 0C8.4963 0 8.28594 0.00758895 8.07752 0.0225235C7.47304 0.0658376 7.01232 0.510406 6.88026 1.05432L6.60155 2.20218C6.58651 2.26413 6.53068 2.33849 6.42393 2.37701C6.22714 2.44802 6.03463 2.52794 5.84689 2.61626C5.74433 2.66451 5.65231 2.65146 5.59784 2.61827L4.58901 2.00363C4.11125 1.71254 3.47148 1.72379 3.01341 2.12008C2.69454 2.39593 2.39593 2.69454 2.12008 3.01341C1.72379 3.47148 1.71254 4.11125 2.00363 4.58901L2.61827 5.59784C2.65146 5.65231 2.66451 5.74433 2.61626 5.84689C2.52794 6.03463 2.44802 6.22714 2.37701 6.42393C2.33849 6.53068 2.26413 6.58651 2.20218 6.60155L1.05432 6.88026C0.510406 7.01232 0.0658377 7.47303 0.0225235 8.07752C0.00758895 8.28594 0 8.4963 0 8.70833C0 8.92037 0.00758895 9.13073 0.0225235 9.33915C0.0658376 9.94363 0.510406 10.4043 1.05433 10.5364L2.20218 10.8151C2.26413 10.8302 2.33849 10.886 2.37701 10.9927C2.44802 11.1895 2.52794 11.382 2.61626 11.5698C2.66451 11.6723 2.65146 11.7644 2.61827 11.8188L2.00363 12.8277C1.71254 13.3054 1.72379 13.9452 2.12008 14.4033C2.39593 14.7221 2.69454 15.0207 3.01341 15.2966C3.47148 15.6929 4.11125 15.7041 4.58901 15.413L5.59784 14.7984C5.65231 14.7652 5.74433 14.7522 5.84689 14.8004C6.03463 14.8887 6.22714 14.9686 6.42393 15.0397C6.53068 15.0782 6.58651 15.1525 6.60155 15.2145L6.88026 16.3623C7.01232 16.9063 7.47304 17.3508 8.07752 17.3941C8.28594 17.4091 8.4963 17.4167 8.70833 17.4167C8.92037 17.4167 9.13073 17.4091 9.33915 17.3941C9.94363 17.3508 10.4043 16.9063 10.5364 16.3623L10.8151 15.2145C10.8302 15.1525 10.886 15.0782 10.9927 15.0397C11.1895 14.9686 11.382 14.8887 11.5698 14.8004C11.6723 14.7522 11.7644 14.7652 11.8188 14.7984L12.8277 15.413C13.3054 15.7041 13.9452 15.6929 14.4033 15.2966C14.7221 15.0207 15.0207 14.7221 15.2966 14.4033C15.6929 13.9452 15.7041 13.3054 15.413 12.8277L14.7984 11.8188C14.7652 11.7644 14.7522 11.6723 14.8004 11.5698C14.8887 11.382 14.9686 11.1895 15.0397 10.9927C15.0782 10.886 15.1525 10.8302 15.2145 10.8151L16.3623 10.5364C16.9063 10.4043 17.3508 9.94363 17.3941 9.33915C17.4091 9.13073 17.4167 8.92037 17.4167 8.70833C17.4167 8.4963 17.4091 8.28594 17.3941 8.07752C17.3508 7.47304 16.9063 7.01232 16.3623 6.88026L15.2145 6.60155C15.1525 6.58651 15.0782 6.53068 15.0397 6.42393C14.9686 6.22714 14.8887 6.03463 14.8004 5.84689C14.7522 5.74434 14.7652 5.65231 14.7984 5.59784L15.413 4.58901C15.7041 4.11125 15.6929 3.47148 15.2966 3.01341C15.0207 2.69454 14.7221 2.39593 14.4033 2.12008C13.9452 1.72379 13.3054 1.71254 12.8277 2.00363L11.8188 2.61827C11.7644 2.65146 11.6723 2.66451 11.5698 2.61626C11.382 2.52794 11.1895 2.44802 10.9927 2.37701C10.886 2.33849 10.8302 2.26413 10.8151 2.20218L10.5364 1.05433C10.4043 0.510406 9.94363 0.0658376 9.33915 0.0225235C9.13073 0.00758895 8.92037 0 8.70833 0ZM8.16239 1.20699C8.34259 1.19407 8.52465 1.1875 8.70833 1.1875C8.89202 1.1875 9.07408 1.19407 9.25428 1.20699C9.29824 1.21014 9.36111 1.24668 9.38244 1.33451L9.66114 2.48237C9.78164 2.97866 10.156 3.33753 10.5897 3.494C10.7515 3.5524 10.9098 3.61813 11.0643 3.69079C11.4817 3.88716 12.0004 3.89817 12.4367 3.63237L13.4455 3.01773C13.5227 2.97072 13.593 2.9893 13.6263 3.01814C13.902 3.25659 14.1601 3.51472 14.3985 3.79034C14.4274 3.82369 14.4459 3.894 14.3989 3.97115L13.7843 4.97997C13.5185 5.41623 13.5295 5.93498 13.7259 6.3524C13.7985 6.50686 13.8643 6.6652 13.9227 6.82702C14.0791 7.26063 14.438 7.63503 14.9343 7.75553L16.0822 8.03423C16.17 8.05555 16.2065 8.11843 16.2097 8.16239C16.2226 8.34259 16.2292 8.52465 16.2292 8.70833C16.2292 8.89202 16.2226 9.07407 16.2097 9.25428C16.2065 9.29824 16.17 9.36111 16.0822 9.38244L14.9343 9.66114C14.438 9.78164 14.0791 10.156 13.9227 10.5897C13.8643 10.7515 13.7985 10.9098 13.7259 11.0643C13.5295 11.4817 13.5185 12.0004 13.7843 12.4367L14.3989 13.4455C14.4459 13.5227 14.4274 13.593 14.3985 13.6263C14.1601 13.9019 13.9019 14.1601 13.6263 14.3985C13.593 14.4274 13.5227 14.4459 13.4455 14.3989L12.4367 13.7843C12.0004 13.5185 11.4817 13.5295 11.0643 13.7259C10.9098 13.7985 10.7515 13.8643 10.5897 13.9227C10.156 14.0791 9.78164 14.438 9.66114 14.9343L9.38244 16.0822C9.36111 16.17 9.29824 16.2065 9.25428 16.2097C9.07407 16.2226 8.89202 16.2292 8.70833 16.2292C8.52465 16.2292 8.34259 16.2226 8.16239 16.2097C8.11843 16.2065 8.05555 16.17 8.03423 16.0822L7.75553 14.9343C7.63503 14.438 7.26063 14.0791 6.82702 13.9227C6.6652 13.8643 6.50686 13.7985 6.3524 13.7259C5.93498 13.5295 5.41624 13.5185 4.97997 13.7843L3.97115 14.3989C3.894 14.4459 3.82369 14.4274 3.79034 14.3985C3.51472 14.1601 3.25659 13.9019 3.01814 13.6263C2.9893 13.593 2.97072 13.5227 3.01773 13.4455L3.63237 12.4367C3.89817 12.0004 3.88716 11.4817 3.69079 11.0643C3.61813 10.9098 3.5524 10.7515 3.494 10.5897C3.33753 10.156 2.97866 9.78164 2.48237 9.66114L1.33451 9.38244C1.24668 9.36111 1.21014 9.29824 1.20699 9.25428C1.19407 9.07408 1.1875 8.89202 1.1875 8.70833C1.1875 8.52465 1.19407 8.34259 1.20699 8.16239C1.21014 8.11843 1.24668 8.05555 1.33451 8.03423L2.48237 7.75553C2.97866 7.63503 3.33753 7.26062 3.494 6.82702C3.5524 6.6652 3.61813 6.50686 3.69079 6.3524C3.88716 5.93498 3.89817 5.41624 3.63237 4.97998L3.01773 3.97115C2.97072 3.894 2.9893 3.82369 3.01814 3.79034C3.25659 3.51472 3.51472 3.25659 3.79034 3.01814C3.82369 2.9893 3.894 2.97072 3.97115 3.01773L4.97997 3.63237C5.41623 3.89817 5.93498 3.88716 6.3524 3.69079C6.50686 3.61813 6.6652 3.5524 6.82702 3.494C7.26062 3.33753 7.63503 2.97866 7.75553 2.48237L8.03423 1.33451C8.05555 1.24668 8.11843 1.21014 8.16239 1.20699Z" fill="#3D3D3D"/>
</svg>
