<svg width="21" height="21" viewBox="0 0 21 21" fill="none" xmlns="http://www.w3.org/2000/svg">
<path d="M6.78125 5.6875C6.17719 5.6875 5.6875 6.17719 5.6875 6.78125C5.6875 7.38531 6.17719 7.875 6.78125 7.875C7.38531 7.875 7.875 7.38531 7.875 6.78125C7.875 6.17719 7.38531 5.6875 6.78125 5.6875Z" fill="white"/>
<path fill-rule="evenodd" clip-rule="evenodd" d="M2.1875 0.875C1.46263 0.875 0.875 1.46263 0.875 2.1875V9.57192C0.875 9.92002 1.01328 10.2539 1.25942 10.5L10.2282 19.4688C10.7407 19.9813 11.5718 19.9813 12.0843 19.4688L19.4687 12.0843C19.9813 11.5718 19.9813 10.7407 19.4687 10.2282L10.5 1.25942C10.2539 1.01328 9.92002 0.875 9.57192 0.875H2.1875ZM2.1875 2.1875H9.57192L18.5407 11.1563L11.1562 18.5407L2.1875 9.57192V2.1875Z" fill="white"/>
</svg>
